<svg width="405" height="143" viewBox="0 0 405 143" fill="none" xmlns="http://www.w3.org/2000/svg">
<path d="M19.456 113C17.5787 113 16 112.36 14.72 111.08C13.44 109.8 12.8 108.221 12.8 106.344V19.688C12.8 17.7253 13.44 16.1467 14.72 14.952C16 13.672 17.5787 13.032 19.456 13.032C21.4187 13.032 22.9973 13.672 24.192 14.952C25.472 16.1467 26.112 17.7253 26.112 19.688V56.424H85.504V19.688C85.504 17.7253 86.144 16.1467 87.424 14.952C88.704 13.672 90.2827 13.032 92.16 13.032C94.1227 13.032 95.7013 13.672 96.896 14.952C98.0907 16.1467 98.688 17.7253 98.688 19.688V106.344C98.688 108.221 98.0907 109.8 96.896 111.08C95.7013 112.36 94.1227 113 92.16 113C90.2827 113 88.704 112.36 87.424 111.08C86.144 109.8 85.504 108.221 85.504 106.344V68.2H26.112V106.344C26.112 108.221 25.472 109.8 24.192 111.08C22.9973 112.36 21.4187 113 19.456 113Z" fill="white"/>
<path d="M185.264 113.512C178.352 113.512 172.251 112.019 166.96 109.032C161.669 105.96 157.488 101.779 154.416 96.488C151.429 91.112 149.936 84.968 149.936 78.056C149.936 71.0587 151.429 64.9147 154.416 59.624C157.488 54.248 161.669 50.0667 166.96 47.08C172.251 44.008 178.352 42.472 185.264 42.472C192.091 42.472 198.149 44.008 203.44 47.08C208.731 50.0667 212.869 54.248 215.856 59.624C218.928 64.9147 220.464 71.0587 220.464 78.056C220.464 84.968 218.971 91.112 215.984 96.488C212.997 101.779 208.859 105.96 203.568 109.032C198.277 112.019 192.176 113.512 185.264 113.512ZM185.264 101.992C189.701 101.992 193.627 100.968 197.04 98.92C200.453 96.872 203.099 94.056 204.976 90.472C206.939 86.888 207.92 82.7493 207.92 78.056C207.92 73.3627 206.939 69.224 204.976 65.64C203.099 61.9707 200.453 59.112 197.04 57.064C193.627 55.016 189.701 53.992 185.264 53.992C180.827 53.992 176.901 55.016 173.488 57.064C170.075 59.112 167.387 61.9707 165.424 65.64C163.461 69.224 162.48 73.3627 162.48 78.056C162.48 82.7493 163.461 86.888 165.424 90.472C167.387 94.056 170.075 96.872 173.488 98.92C176.901 100.968 180.827 101.992 185.264 101.992ZM271.639 113.512C264.727 113.512 258.626 112.019 253.335 109.032C248.044 105.96 243.863 101.779 240.791 96.488C237.804 91.112 236.311 84.968 236.311 78.056C236.311 71.0587 237.804 64.9147 240.791 59.624C243.863 54.248 248.044 50.0667 253.335 47.08C258.626 44.008 264.727 42.472 271.639 42.472C278.466 42.472 284.524 44.008 289.815 47.08C295.106 50.0667 299.244 54.248 302.231 59.624C305.303 64.9147 306.839 71.0587 306.839 78.056C306.839 84.968 305.346 91.112 302.359 96.488C299.372 101.779 295.234 105.96 289.943 109.032C284.652 112.019 278.551 113.512 271.639 113.512ZM271.639 101.992C276.076 101.992 280.002 100.968 283.415 98.92C286.828 96.872 289.474 94.056 291.351 90.472C293.314 86.888 294.295 82.7493 294.295 78.056C294.295 73.3627 293.314 69.224 291.351 65.64C289.474 61.9707 286.828 59.112 283.415 57.064C280.002 55.016 276.076 53.992 271.639 53.992C267.202 53.992 263.276 55.016 259.863 57.064C256.45 59.112 253.762 61.9707 251.799 65.64C249.836 69.224 248.855 73.3627 248.855 78.056C248.855 82.7493 249.836 86.888 251.799 90.472C253.762 94.056 256.45 96.872 259.863 98.92C263.276 100.968 267.202 101.992 271.639 101.992ZM358.014 113.512C351.358 113.512 345.342 111.976 339.966 108.904C334.675 105.747 330.451 101.48 327.294 96.104C324.222 90.728 322.686 84.6693 322.686 77.928C322.686 71.1867 324.094 65.1707 326.91 59.88C329.811 54.504 333.737 50.28 338.686 47.208C343.635 44.0507 349.225 42.472 355.454 42.472C360.489 42.472 365.139 43.5387 369.406 45.672C373.673 47.72 377.257 50.536 380.158 54.12V19.56C380.158 17.5973 380.755 16.0187 381.95 14.824C383.23 13.6293 384.809 13.032 386.686 13.032C388.649 13.032 390.227 13.6293 391.422 14.824C392.617 16.0187 393.214 17.5973 393.214 19.56V77.928C393.214 84.6693 391.635 90.728 388.478 96.104C385.406 101.48 381.225 105.747 375.934 108.904C370.643 111.976 364.67 113.512 358.014 113.512ZM358.014 101.992C362.366 101.992 366.249 100.968 369.662 98.92C373.075 96.7867 375.763 93.8853 377.726 90.216C379.689 86.5467 380.67 82.4507 380.67 77.928C380.67 73.32 379.689 69.224 377.726 65.64C375.763 62.056 373.075 59.24 369.662 57.192C366.249 55.0587 362.366 53.992 358.014 53.992C353.747 53.992 349.865 55.0587 346.366 57.192C342.953 59.24 340.222 62.056 338.174 65.64C336.211 69.224 335.23 73.32 335.23 77.928C335.23 82.4507 336.211 86.5467 338.174 90.216C340.222 93.8853 342.953 96.7867 346.366 98.92C349.865 100.968 353.747 101.992 358.014 101.992Z" fill="white"/>
<rect x="103" y="14" width="51" height="11" rx="5" fill="white"/>
<rect x="103" y="53" width="39" height="11" rx="5" fill="white"/>
</svg>
